<svg width="16" height="16" viewBox="0 0 16 16" fill="none" xmlns="http://www.w3.org/2000/svg">
<path d="M8 16C12.4183 16 16 12.4183 16 8C16 3.58172 12.4183 0 8 0C3.58172 0 0 3.58172 0 8C0 12.4183 3.58172 16 8 16Z" fill="#ECF0F6"/>
<path d="M8.0001 12.4589C10.4627 12.4589 12.4589 10.4626 12.4589 8.0001C12.4589 5.53755 10.4627 3.54126 8.0001 3.54126C5.53755 3.54126 3.54126 5.53755 3.54126 8.0001C3.54126 10.4626 5.53755 12.4589 8.0001 12.4589Z" fill="white"/>
<path d="M8.00001 3C7.0111 3 6.0444 3.29324 5.22216 3.84265C4.39991 4.39206 3.75905 5.17295 3.38061 6.08658C3.00217 7.00021 2.90315 8.00555 3.09608 8.97545C3.28901 9.94536 3.76521 10.8363 4.46447 11.5355C5.16374 12.2348 6.05465 12.711 7.02456 12.9039C7.99446 13.0969 8.99979 12.9978 9.91342 12.6194C10.827 12.241 11.6079 11.6001 12.1573 10.7779C12.7067 9.95561 13 8.98891 13 8C13.0019 7.3453 12.8748 6.69663 12.6261 6.09103C12.3773 5.48544 12.0117 4.93477 11.5501 4.47048C11.0885 4.00618 10.5399 3.63736 9.93582 3.38505C9.33168 3.13275 8.68377 3.00191 8.02906 3H8.00001ZM8.08475 8.16949L7.56417 9.92494H10.3487C10.3671 9.92429 10.3855 9.92729 10.4028 9.93375C10.4201 9.94022 10.4359 9.95003 10.4494 9.96262C10.4629 9.97522 10.4738 9.99034 10.4814 10.0071C10.4891 10.0239 10.4933 10.0421 10.4939 10.0605V10.1065L10.2518 10.9419C10.2411 10.9814 10.2173 11.0161 10.1843 11.0403C10.1513 11.0645 10.1111 11.0768 10.0702 11.0751H5.80872L6.52301 8.64165L5.72398 8.88378L5.90558 8.32688L6.70461 8.08475L7.70945 4.6707C7.72051 4.63142 7.7444 4.59697 7.77731 4.57283C7.81022 4.5487 7.85026 4.53627 7.89105 4.53753H8.96853C8.98698 4.53688 9.00537 4.53988 9.02265 4.54634C9.03994 4.55281 9.05578 4.56262 9.06928 4.57521C9.08277 4.58781 9.09365 4.60294 9.10129 4.61974C9.10893 4.63654 9.11318 4.65468 9.11381 4.67312V4.71913L8.26635 7.60048L9.06538 7.35835L8.89589 7.93947L8.08475 8.16949Z" fill="#345D9D"/>
</svg>
