<svg width="16" height="16" viewBox="0 0 16 16" fill="none" xmlns="http://www.w3.org/2000/svg">
<path d="M8 16C12.4183 16 16 12.4183 16 8C16 3.58172 12.4183 0 8 0C3.58172 0 0 3.58172 0 8C0 12.4183 3.58172 16 8 16Z" fill="#ECF0F6"/>
<path d="M7.33326 6.95669H6.52319L7.02987 4.05261H7.8399L7.33326 6.95669Z" fill="#00579F"/>
<path d="M10.2698 4.12364C10.11 4.06488 9.85662 4 9.54326 4C8.74329 4 8.17996 4.39543 8.1765 4.96077C8.16986 5.37788 8.57983 5.60955 8.88646 5.74863C9.19987 5.89075 9.3064 5.98351 9.3064 6.11018C9.30321 6.30474 9.05315 6.39442 8.81993 6.39442C8.49651 6.39442 8.32322 6.34818 8.05987 6.23994L7.9532 6.19354L7.83984 6.84544C8.02983 6.92568 8.37987 6.99688 8.74329 7C9.59327 7 10.1466 6.61069 10.1532 6.00823C10.1564 5.67764 9.93995 5.42432 9.47323 5.21733C9.1899 5.08445 9.01639 4.99485 9.01639 4.8589C9.01971 4.7353 9.16314 4.60871 9.48297 4.60871C9.74632 4.6025 9.93981 4.66118 10.0864 4.7199L10.1596 4.75074L10.2698 4.12364Z" fill="#00579F"/>
<path d="M11.3467 5.92788C11.4134 5.76104 11.6701 5.11534 11.6701 5.11534C11.6667 5.12154 11.7366 4.94542 11.7766 4.83731L11.8333 5.08754C11.8333 5.08754 11.9867 5.78268 12.02 5.92788C11.8934 5.92788 11.5067 5.92788 11.3467 5.92788ZM12.3466 4.05261H11.72C11.5268 4.05261 11.38 4.10508 11.2966 4.29356L10.0933 6.95665H10.9433C10.9433 6.95665 11.0833 6.59821 11.1133 6.52102C11.2066 6.52102 12.0334 6.52102 12.1534 6.52102C12.1767 6.62298 12.2501 6.95665 12.2501 6.95665H13.0001L12.3466 4.05261Z" fill="#00579F"/>
<path d="M5.84667 4.05261L5.05334 6.03291L4.96665 5.63128C4.81998 5.16786 4.36 4.66435 3.84668 4.414L4.57333 6.95361H5.42996L6.70325 4.05261H5.84667Z" fill="#00579F"/>
<path d="M4.31666 4.05261H3.01333L3 4.11129C4.01667 4.35228 4.69 4.93319 4.96664 5.63141L4.68331 4.29672C4.63666 4.11124 4.49332 4.05873 4.31666 4.05261Z" fill="#FAA61A"/>
<path d="M9.31935 8.49481H6.6814V12.8377H9.31935V8.49481Z" fill="#FF5F00"/>
<path d="M6.95311 10.6667C6.95278 10.2485 7.04683 9.83572 7.22814 9.45958C7.40944 9.08344 7.67326 8.7538 7.99961 8.49561C7.5954 8.17541 7.10998 7.9763 6.59882 7.92103C6.08765 7.86576 5.57138 7.95656 5.10899 8.18306C4.6466 8.40956 4.25676 8.76261 3.98402 9.20187C3.71128 9.64113 3.56665 10.1488 3.56665 10.667C3.56665 11.1852 3.71128 11.693 3.98402 12.1322C4.25676 12.5715 4.6466 12.9246 5.10899 13.151C5.57138 13.3775 6.08765 13.4683 6.59882 13.4131C7.10998 13.3578 7.5954 13.1587 7.99961 12.8385C7.67315 12.5802 7.40928 12.2505 7.22797 11.8742C7.04666 11.4979 6.95267 11.085 6.95311 10.6667Z" fill="#EB001B"/>
<path d="M12.4329 10.6667C12.4329 11.1849 12.2882 11.6927 12.0154 12.1319C11.7426 12.5712 11.3527 12.9243 10.8903 13.1507C10.4278 13.3772 9.9115 13.4679 9.40031 13.4126C8.88912 13.3572 8.40369 13.158 7.99951 12.8377C8.32573 12.5793 8.58947 12.2496 8.77083 11.8734C8.95218 11.4973 9.04641 11.0845 9.04641 10.6663C9.04641 10.2481 8.95218 9.8353 8.77083 9.45914C8.58947 9.08298 8.32573 8.75325 7.99951 8.49482C8.40369 8.17453 8.88912 7.97532 9.40031 7.91997C9.9115 7.86462 10.4278 7.95536 10.8903 8.18183C11.3527 8.40829 11.7426 8.76134 12.0154 9.20062C12.2882 9.63989 12.4329 10.1477 12.4329 10.6659V10.6667Z" fill="#F79E1B"/>
</svg>
