<svg width="16" height="16" viewBox="0 0 16 16" fill="none" xmlns="http://www.w3.org/2000/svg">
<path d="M8 16C12.4183 16 16 12.4183 16 8C16 3.58172 12.4183 0 8 0C3.58172 0 0 3.58172 0 8C0 12.4183 3.58172 16 8 16Z" fill="#ECF0F6"/>
<path d="M11.2053 10.1427C11.2321 10.3557 11.1721 10.438 11.1053 10.438C11.0384 10.438 10.9447 10.3557 10.8447 10.191C10.7447 10.0263 10.7042 9.84039 10.7579 9.74476C10.7911 9.68261 10.8647 9.65498 10.9516 9.68951C11.1253 9.75858 11.1921 10.0258 11.2053 10.1427ZM10.27 10.6102C10.4769 10.7887 10.5374 10.9943 10.43 11.1457C10.3963 11.1854 10.3543 11.2171 10.3069 11.2384C10.2596 11.2597 10.2081 11.2702 10.1563 11.2689C10.0409 11.2701 9.92916 11.2285 9.84211 11.152C9.65527 10.9874 9.60159 10.7127 9.72159 10.5618C9.7472 10.5298 9.77997 10.5044 9.81721 10.4877C9.85446 10.471 9.8951 10.4634 9.9358 10.4657C10.0426 10.4657 10.1632 10.5135 10.27 10.6096V10.6102ZM3 7.72495C3 5.11491 5.0579 3 7.59685 3C10.1363 3 12.1942 5.11544 12.1942 7.72495C12.1943 8.57674 11.9707 9.41334 11.5463 10.1496C11.5326 10.1703 11.499 10.1634 11.4926 10.1358C11.3326 8.97498 10.6442 8.33642 9.64211 8.1441C9.55474 8.13029 9.54159 8.07504 9.65527 8.06176C9.96264 8.03414 10.3969 8.04104 10.6237 8.08248C10.6374 7.96561 10.6442 7.84182 10.6442 7.71804C10.6442 5.99413 9.28106 4.59322 7.60369 4.59322C5.92685 4.59322 4.56369 5.99413 4.56369 7.71804C4.56369 9.44248 5.92685 10.8434 7.60369 10.8434H7.74422C7.6965 10.5645 7.67622 10.2816 7.68369 9.9987C7.69053 9.80639 7.73106 9.77877 7.81106 9.92964C8.23211 10.6787 8.83316 11.3518 10.0095 11.619C10.9716 11.8395 11.9337 12.0934 12.9695 13.4465C13.0626 13.5634 12.9226 13.6866 12.8158 13.5905C11.76 12.6289 10.7979 12.3128 9.92264 12.3128C8.94001 12.3203 8.27211 12.451 7.59685 12.451C5.0579 12.451 3 10.3345 3 7.72442V7.72495Z" fill="#FF8C00"/>
</svg>
