<svg width="16" height="16" viewBox="0 0 16 16" fill="none" xmlns="http://www.w3.org/2000/svg">
<path d="M8 16C12.4183 16 16 12.4183 16 8C16 3.58172 12.4183 0 8 0C3.58172 0 0 3.58172 0 8C0 12.4183 3.58172 16 8 16Z" fill="#ECF0F6"/>
<path d="M12.8503 9.21028C12.1825 11.8892 9.4692 13.5195 6.79001 12.8514C4.11191 12.1836 2.48158 9.47015 3.14978 6.79143C3.81735 4.11224 6.53061 2.48176 9.20902 3.14964C11.8881 3.81752 13.5182 6.53125 12.8503 9.21028Z" fill="#F7931A"/>
<path d="M10.2053 7.28744C10.3048 6.62206 9.79821 6.26436 9.10548 6.02574L9.33019 5.1244L8.78154 4.98766L8.56276 5.86526C8.41853 5.82931 8.27039 5.79541 8.12318 5.76181L8.34352 4.87843L7.79518 4.7417L7.57031 5.64273C7.45093 5.61554 7.33373 5.58867 7.21996 5.56038L7.22059 5.55757L6.46395 5.36864L6.318 5.95464C6.318 5.95464 6.72507 6.04793 6.71647 6.05371C6.93869 6.10919 6.97884 6.25623 6.97212 6.37281L6.71616 7.39964C6.73147 7.40354 6.75132 7.40917 6.7732 7.41792C6.75492 7.41339 6.73538 7.40839 6.71522 7.40354L6.35643 8.84198C6.32924 8.90949 6.26033 9.01075 6.105 8.9723C6.11047 8.98027 5.70621 8.87276 5.70621 8.87276L5.43384 9.5008L6.14782 9.67878C6.28065 9.71207 6.41081 9.74692 6.53895 9.77973L6.3119 10.6914L6.85993 10.8281L7.08479 9.92616C7.2345 9.96678 7.37983 10.0043 7.52203 10.0396L7.29794 10.9373L7.84659 11.0741L8.07365 10.1641C9.00922 10.3412 9.71273 10.2698 10.0089 9.4236C10.2475 8.74228 9.99698 8.34927 9.50474 8.09299C9.86321 8.01033 10.1332 7.77452 10.2053 7.28744ZM8.95171 9.04528C8.78216 9.7266 7.63501 9.35828 7.26309 9.26593L7.56438 8.05814C7.93629 8.15097 9.12892 8.33474 8.95171 9.04528ZM9.12141 7.27759C8.96671 7.89735 8.01192 7.58247 7.7022 7.50527L7.97536 6.40985C8.28508 6.48704 9.28253 6.63112 9.12141 7.27759Z" fill="white"/>
</svg>
